<?xml version="1.0" encoding="UTF-8" standalone="no"?>
<!-- Created with Inkscape (http://www.inkscape.org/) -->

<svg
   xmlns:osb="http://www.openswatchbook.org/uri/2009/osb"
   xmlns:dc="http://purl.org/dc/elements/1.1/"
   xmlns:cc="http://creativecommons.org/ns#"
   xmlns:rdf="http://www.w3.org/1999/02/22-rdf-syntax-ns#"
   xmlns:svg="http://www.w3.org/2000/svg"
   xmlns="http://www.w3.org/2000/svg"
   xmlns:xlink="http://www.w3.org/1999/xlink"
   xmlns:sodipodi="http://sodipodi.sourceforge.net/DTD/sodipodi-0.dtd"
   xmlns:inkscape="http://www.inkscape.org/namespaces/inkscape"
   width="120.15258mm"
   height="20.768997mm"
   viewBox="0 0 120.15258 20.768997"
   version="1.1"
   id="svg8"
   sodipodi:docname="SecuriteMode_Logo_with_hover_paths.svg"
   inkscape:version="0.92.3 (2405546, 2018-03-11)">
  <defs
     id="defs2">
    <linearGradient
       id="linearGradient4593"
       osb:paint="solid">
      <stop
         style="stop-color:#000000;stop-opacity:1;"
         offset="0"
         id="stop4591" />
    </linearGradient>
    <defs
       id="defs48">
      <rect
         id="SVGID_1_"
         width="504"
         height="144"
         x="0"
         y="0" />
    </defs>
    <clipPath
       id="SVGID_2_">
      <use
         xlink:href="#SVGID_1_"
         style="overflow:visible"
         id="use50"
         x="0"
         y="0"
         width="100%"
         height="100%" />
    </clipPath>
    <rect
       id="rect33"
       width="504"
       height="144"
       x="0"
       y="0" />
  </defs>
  <sodipodi:namedview
     id="base"
     pagecolor="#ffffff"
     bordercolor="#666666"
     borderopacity="1.0"
     inkscape:pageopacity="0.0"
     inkscape:pageshadow="2"
     inkscape:zoom="1.4"
     inkscape:cx="95.913683"
     inkscape:cy="39.930112"
     inkscape:document-units="mm"
     inkscape:current-layer="layer1"
     showgrid="false"
     inkscape:window-width="1229"
     inkscape:window-height="803"
     inkscape:window-x="2314"
     inkscape:window-y="33"
     inkscape:window-maximized="0"
     fit-margin-top="0"
     fit-margin-left="0"
     fit-margin-right="0"
     fit-margin-bottom="0" />
  <metadata
     id="metadata5">
    <rdf:RDF>
      <cc:Work
         rdf:about="">
        <dc:format>image/svg+xml</dc:format>
        <dc:type
           rdf:resource="http://purl.org/dc/dcmitype/StillImage" />
        <dc:title />
      </cc:Work>
    </rdf:RDF>
  </metadata>
  <g
     inkscape:label="Layer 1"
     inkscape:groupmode="layer"
     id="layer1"
     transform="translate(-19.298709,-113.50241)">
    <g
       id="g46"
       transform="matrix(0.26458333,0,0,0.26458333,20.621626,114.82506)">
      <path
         transform="translate(-29.94,-37.751)"
         style="fill:#ffffff"
         d="M 458.587,39.133 H 311.122 c -6.329,-4.15 -13.732,-6.381 -21.467,-6.381 -7.896,0 -15.25,2.352 -21.413,6.381 H 45.414 c -11.289,0 -20.474,9.185 -20.474,20.474 v 24.417 c 0,11.29 9.185,20.475 20.474,20.475 h 222.217 c 6.444,4.389 14.047,6.75 22.024,6.75 8.14,0 15.706,-2.491 21.982,-6.75 h 146.949 c 11.289,0 20.474,-9.185 20.474,-20.475 V 59.607 c 10e-4,-11.289 -9.184,-20.474 -20.473,-20.474"
         clip-path="url(#SVGID_2_)"
         id="path53"
         inkscape:connector-curvature="0" />
      <path
         transform="translate(-29.94,-37.751)"
         style="fill:#f7931e"
         d="m 452.855,77.25 c 0.979,-1.257 1.811,-2.563 2.494,-3.913 0.683,-1.351 1.172,-2.581 1.468,-3.691 l 10e-4,-0.222 c 0.035,-0.295 0.062,-0.693 0.083,-1.192 0.017,-0.5 -0.049,-0.749 -0.196,-0.749 -0.591,0.038 -1.407,0.454 -2.441,1.25 -1.034,0.795 -2.105,1.869 -3.216,3.22 -1.108,1.352 -2.181,2.922 -3.214,4.718 -1.036,1.794 -1.829,3.727 -2.383,5.799 1.442,-0.298 2.792,-0.927 4.05,-1.889 1.255,-0.962 2.375,-2.072 3.354,-3.331"
         clip-path="url(#SVGID_2_)"
         id="path55"
         inkscape:connector-curvature="0" />
      <path
         transform="translate(-29.94,-37.751)"
         style="fill:#f7931e"
         d="m 427.994,67.75 c -0.759,0.352 -1.579,0.971 -2.469,1.86 -0.887,0.889 -1.773,2.026 -2.661,3.413 -0.888,1.388 -1.69,2.943 -2.41,4.663 -0.72,1.721 -1.304,3.57 -1.743,5.549 -0.445,1.979 -0.663,4.023 -0.663,6.132 -0.036,0.629 -0.008,1.147 0.084,1.552 0.091,0.409 0.232,0.649 0.417,0.722 0.332,0.11 0.924,-0.296 1.775,-1.223 0.849,-0.923 1.781,-2.117 2.799,-3.58 1.017,-1.461 2.005,-3.051 2.965,-4.772 0.962,-1.72 1.719,-3.319 2.271,-4.799 0.296,-1.186 0.609,-2.396 0.942,-3.635 0.332,-1.24 0.681,-2.488 1.05,-3.747 0.038,-0.111 0.057,-0.278 0.058,-0.499 -10e-4,-0.813 -0.205,-1.368 -0.612,-1.665 -0.444,-0.333 -1.044,-0.324 -1.803,0.029"
         clip-path="url(#SVGID_2_)"
         id="path57"
         inkscape:connector-curvature="0" />
      <path
         transform="translate(-29.94,-37.751)"
         style="fill:#f7931e"
         d="m 406.246,68.068 c -0.205,-0.333 -0.407,-0.573 -0.611,-0.722 -0.203,-0.146 -0.343,-0.221 -0.415,-0.221 -1.445,0.076 -2.637,0.483 -3.58,1.222 -0.941,0.742 -1.672,1.593 -2.189,2.555 0.479,-0.37 1.101,-0.74 1.858,-1.111 0.757,-0.37 1.459,-0.648 2.108,-0.834 0.645,-0.184 1.165,-0.25 1.552,-0.195 0.388,0.055 0.454,0.305 0.195,0.749 -0.853,0.63 -1.821,1.694 -2.911,3.191 -1.09,1.5 -2.153,3.193 -3.188,5.08 l -1.718,3.274 c -0.96,2.073 -1.754,4.062 -2.382,5.965 -0.627,1.906 -0.905,3.47 -0.828,4.689 0.036,0.591 0.09,1.036 0.166,1.331 0.073,0.297 0.258,0.408 0.554,0.333 0.74,-0.11 1.472,-0.444 2.192,-1 0.72,-0.556 1.423,-1.249 2.107,-2.082 0.684,-0.832 1.34,-1.775 1.969,-2.83 0.627,-1.055 1.218,-2.174 1.772,-3.357 0.285,-0.581 1.219,-2.942 1.219,-2.942 0.738,-1.887 1.348,-3.69 1.827,-5.41 0.479,-1.72 0.812,-3.172 0.996,-4.355 0.036,-0.778 -0.02,-1.443 -0.168,-1.998 -0.147,-0.556 -0.323,-0.999 -0.525,-1.332"
         clip-path="url(#SVGID_2_)"
         id="path59"
         inkscape:connector-curvature="0" />
      <path
         transform="translate(-29.94,-37.751)"
         style="fill:#f7931e"
         d="m 458.653,44.133 h -9.835 c -1.271,1.712 -2.446,3.523 -3.523,5.436 -1.461,2.59 -2.782,5.244 -3.963,7.964 -1.183,2.719 -2.226,5.466 -3.129,8.242 -0.905,2.774 -1.691,5.437 -2.356,7.99 -0.294,1.11 -0.664,2.469 -1.106,4.078 -0.441,1.609 -0.866,3.228 -1.274,4.855 -0.403,1.629 -0.754,3.145 -1.05,4.55 -0.295,1.405 -0.461,2.461 -0.496,3.164 0,0.074 -0.01,0.139 -0.029,0.193 -0.018,0.056 -0.027,0.121 -0.027,0.194 -0.073,0.479 -0.035,0.703 0.111,0.666 0.148,-0.036 0.498,-0.407 1.054,-1.11 0.556,-0.703 1.237,-1.638 2.052,-2.804 0.812,-1.165 1.699,-2.487 2.661,-3.968 0.495,-0.763 0.992,-1.543 1.491,-2.339 0.304,-1.112 0.67,-2.229 1.111,-3.351 0.665,-1.682 1.504,-3.329 2.521,-4.939 1.016,-1.61 2.189,-3.042 3.52,-4.302 1.333,-1.257 2.819,-2.276 4.466,-3.054 1.645,-0.778 3.447,-1.185 5.408,-1.223 0.889,-0.038 1.638,0.129 2.248,0.498 0.611,0.369 1.091,0.822 1.443,1.358 0.352,0.536 0.61,1.063 0.778,1.58 0.166,0.518 0.267,0.907 0.305,1.166 0.036,0.259 0.047,0.508 0.029,0.748 -0.021,0.241 -0.049,0.472 -0.084,0.694 -0.184,1.406 -0.756,2.913 -1.717,4.522 -0.963,1.61 -2.127,3.127 -3.494,4.552 -1.366,1.426 -2.864,2.646 -4.491,3.665 -1.626,1.019 -3.18,1.619 -4.659,1.806 -0.407,0.074 -0.73,0.038 -0.97,-0.11 -0.241,-0.146 -0.436,-0.333 -0.584,-0.555 -0.222,1.185 -0.33,2.367 -0.33,3.552 0,0.333 0.01,0.665 0.027,0.999 0.019,0.333 0.046,0.664 0.084,0.998 -0.001,0.221 0.046,0.48 0.14,0.776 0.094,0.297 0.212,0.583 0.36,0.86 0.148,0.277 0.333,0.518 0.557,0.721 0.223,0.203 0.462,0.305 0.721,0.305 1.072,0.109 2.33,-0.325 3.772,-1.307 1.442,-0.98 2.919,-2.249 4.437,-3.803 1.514,-1.555 3.068,-3.236 4.545,-5.135 0.966,-1.242 3.04,1.04 2.499,1.857 -1.662,2.184 -3.448,4.189 -5.351,6.022 -1.905,1.832 -3.872,3.332 -5.906,4.497 -2.035,1.167 -4.049,1.676 -6.046,1.53 -0.482,-0.037 -1.008,-0.121 -1.583,-0.249 -0.573,-0.129 -1.139,-0.405 -1.691,-0.831 -0.555,-0.425 -1.075,-1.026 -1.555,-1.803 -0.481,-0.776 -0.868,-1.811 -1.166,-3.105 -0.119,-0.54 -0.187,-1.112 -0.23,-1.697 -0.404,0.561 -0.809,1.109 -1.214,1.642 -1.404,1.852 -2.715,3.405 -3.936,4.663 -1.221,1.258 -2.199,1.924 -2.939,2 -0.332,0 -0.703,-0.038 -1.108,-0.111 -0.408,-0.074 -0.796,-0.24 -1.166,-0.498 -0.371,-0.259 -0.704,-0.646 -0.999,-1.166 -0.299,-0.517 -0.52,-1.219 -0.667,-2.106 l -0.001,0.055 c -0.075,-0.296 -0.11,-0.61 -0.11,-0.943 0,-0.332 -0.001,-0.703 -0.001,-1.109 0.001,-0.555 0.027,-1.154 0.082,-1.803 0.054,-0.647 0.119,-1.341 0.194,-2.082 -0.813,1.148 -1.684,2.276 -2.608,3.387 -0.923,1.11 -1.856,2.102 -2.799,2.971 -0.942,0.87 -1.858,1.555 -2.744,2.054 -0.888,0.5 -1.666,0.73 -2.331,0.695 -0.924,-0.074 -1.767,-0.516 -2.526,-1.329 -0.758,-0.814 -1.304,-1.867 -1.637,-3.162 -0.076,-0.296 -0.13,-0.619 -0.167,-0.971 -0.037,-0.353 -0.056,-0.77 -0.057,-1.249 -10e-4,-1.294 0.156,-2.812 0.469,-4.55 0.172,-0.951 0.395,-1.924 0.661,-2.914 -1.278,0.814 -2.58,1.423 -3.907,1.807 -0.778,1.407 -1.608,2.867 -2.496,4.384 -0.885,1.519 -1.903,2.887 -3.047,4.108 -1.147,1.221 -2.422,2.221 -3.827,2.998 -1.406,0.777 -2.996,1.129 -4.771,1.058 -1.554,-0.075 -2.812,-0.619 -3.773,-1.636 -0.962,-1.016 -1.59,-2.357 -1.888,-4.022 -0.111,-0.922 -0.094,-2.126 0.054,-3.604 0.146,-1.48 0.468,-3.079 0.967,-4.8 0.498,-1.722 1.171,-3.486 2.022,-5.3 0.849,-1.813 1.901,-3.516 3.159,-5.107 0.479,-2.108 1.561,-3.883 3.244,-5.327 1.68,-1.444 3.945,-2.203 6.794,-2.279 1.184,-0.036 2.172,0.166 2.97,0.609 0.793,0.443 1.44,1.035 1.94,1.773 0.499,0.74 0.862,1.609 1.084,2.608 0.224,0.999 0.334,2.052 0.335,3.162 0,1.185 -0.1,2.386 -0.303,3.607 -0.203,1.22 -0.471,2.404 -0.803,3.551 1.146,-0.667 2.226,-1.453 3.244,-2.36 0.35,-0.311 0.679,-0.631 1.011,-0.949 0.339,-0.77 0.701,-1.536 1.096,-2.297 0.942,-1.813 2.023,-3.44 3.243,-4.886 1.22,-1.443 2.586,-2.608 4.104,-3.497 1.517,-0.888 3.18,-1.334 4.994,-1.334 0.887,0.036 1.609,0.174 2.162,0.414 0.557,0.241 1.018,0.564 1.388,0.97 0.85,-2.589 1.746,-5.105 2.687,-7.547 0.942,-2.442 1.884,-4.669 2.826,-6.687 0.943,-2.015 1.875,-3.774 2.798,-5.273 0.475,-0.767 0.933,-1.422 1.376,-1.971 h -75.314 c -0.083,0.129 -0.164,0.257 -0.258,0.394 -0.554,0.826 -1.243,1.841 -2.066,3.045 -1.109,1.618 -2.407,3.553 -3.896,5.805 -1.49,2.252 -3.033,4.766 -4.631,7.54 -1.601,2.776 -3.191,5.773 -4.773,8.991 -1.586,3.218 -3.011,6.604 -4.275,10.156 1.455,-2.506 3.247,-5.272 5.368,-8.303 2.122,-3.028 4.594,-6.065 7.415,-9.11 2.817,-3.046 6.012,-5.979 9.577,-8.804 3.564,-2.823 7.501,-5.315 11.813,-7.473 0.315,-0.159 0.625,-0.27 0.926,-0.334 0.304,-0.063 0.578,-0.095 0.832,-0.096 0.667,0 1.253,0.174 1.763,0.522 0.505,0.35 0.902,0.769 1.188,1.259 0.286,0.492 0.46,0.992 0.526,1.499 0.062,0.507 0,0.904 -0.192,1.189 -0.285,0.349 -0.831,1.022 -1.639,2.022 -0.809,0.999 -1.758,2.237 -2.853,3.712 -1.092,1.474 -2.271,3.139 -3.539,4.995 -1.266,1.855 -2.518,3.813 -3.753,5.874 2.82,-2.727 5.974,-5.274 9.46,-7.637 3.486,-2.364 7.194,-4.515 11.122,-6.451 0.319,-0.159 0.626,-0.27 0.93,-0.334 0.301,-0.063 0.576,-0.095 0.831,-0.095 0.666,-0.001 1.261,0.182 1.783,0.547 0.523,0.363 0.936,0.791 1.238,1.283 0.3,0.491 0.482,0.982 0.547,1.473 0.064,0.492 -0.016,0.88 -0.236,1.164 -0.158,0.192 -0.649,0.922 -1.474,2.191 -0.824,1.267 -1.813,2.942 -2.968,5.019 -1.158,2.077 -2.393,4.479 -3.706,7.206 -1.314,2.728 -2.533,5.629 -3.657,8.705 -1.125,3.076 -2.049,6.255 -2.776,9.536 -0.729,3.281 -1.09,6.508 -1.086,9.678 0,0.064 0.004,0.133 0.004,0.198 h 75.001 c 8.511,0 15.474,-6.963 15.474,-15.475 V 59.607 c -0.006,-8.511 -6.969,-15.474 -15.48,-15.474"
         clip-path="url(#SVGID_2_)"
         id="path61"
         inkscape:connector-curvature="0" />
      <path
         transform="translate(-29.94,-37.751)"
         style="fill:#f7931e"
         d="m 336.186,97.332 -0.002,-1.427 c -0.003,-4.597 0.55,-9.066 1.656,-13.41 1.107,-4.345 2.509,-8.436 4.202,-12.273 1.693,-3.837 3.529,-7.365 5.51,-10.585 1.98,-3.218 3.85,-6.026 5.606,-8.421 1.759,-2.394 3.263,-4.297 4.514,-5.709 0.494,-0.557 0.886,-0.998 1.22,-1.374 h -2 c -0.31,0.148 -0.63,0.302 -0.979,0.471 -1.602,0.779 -3.415,1.786 -5.444,3.024 -2.027,1.237 -4.167,2.706 -6.417,4.402 -2.252,1.698 -4.396,3.658 -6.439,5.877 -1.061,1.196 -3.441,-6.034 -0.623,-8.226 2.026,-1.578 4.095,-2.944 6.155,-4.165 0.828,-0.492 1.644,-0.941 2.457,-1.383 h -28.299 c 7.299,7.135 11.833,17.084 11.833,28.097 0,10.594 -4.197,20.201 -11.013,27.269 h 18.923 l -0.004,-0.004 c -0.541,-0.587 -0.826,-1.307 -0.856,-2.163"
         clip-path="url(#SVGID_2_)"
         id="path63"
         inkscape:connector-curvature="0" />
      <path
         transform="translate(-29.94,-37.751)"
         style="fill:#f7931e"
         d="m 377.364,91.054 c 0.285,-2.108 0.711,-4.313 1.28,-6.609 0.569,-2.3 1.274,-4.639 2.112,-7.017 0.838,-2.378 1.804,-4.718 2.897,-7.017 1.091,-2.298 2.303,-4.502 3.633,-6.612 1.332,-2.109 2.771,-4.051 4.326,-5.828 -0.89,0.476 -2.029,1.175 -3.424,2.094 -1.395,0.92 -2.908,2.024 -4.539,3.308 -1.635,1.285 -3.313,2.721 -5.04,4.307 -1.727,1.586 -3.382,3.276 -4.967,5.067 -1.585,1.793 -3.017,3.657 -4.3,5.591 -1.283,1.934 -2.289,3.885 -3.017,5.852 -0.127,0.666 -0.222,1.315 -0.283,1.949 -0.034,0.254 -0.159,0.522 -0.382,0.809 -0.221,0.285 -0.491,0.555 -0.806,0.809 -0.318,0.254 -0.677,0.461 -1.07,0.619 -0.396,0.159 -0.8,0.238 -1.213,0.238 -0.508,10e-4 -0.991,-0.156 -1.451,-0.474 -0.46,-0.316 -0.801,-0.84 -1.023,-1.57 -0.222,-0.76 -0.208,-1.877 0.045,-3.353 0.255,-1.475 0.72,-3.17 1.4,-5.089 0.68,-1.917 1.544,-3.995 2.589,-6.23 1.043,-2.236 2.256,-4.52 3.633,-6.851 1.379,-2.332 2.892,-4.654 4.538,-6.97 1.646,-2.315 3.405,-4.488 5.275,-6.518 -1.172,0.73 -2.679,1.833 -4.516,3.307 -1.84,1.476 -3.859,3.293 -6.061,5.45 -2.203,2.157 -4.508,4.624 -6.915,7.399 -2.41,2.776 -4.745,5.797 -7.01,9.062 -2.265,3.27 -4.387,6.765 -6.365,10.491 -1.98,3.727 -3.649,7.619 -5.011,11.679 L 341.66,99.5 h 35.406 c -0.086,-0.823 -0.13,-1.713 -0.131,-2.667 0.003,-1.744 0.146,-3.669 0.429,-5.779"
         clip-path="url(#SVGID_2_)"
         id="path65"
         inkscape:connector-curvature="0" />
      <path
         transform="translate(-29.94,-37.751)"
         style="fill:#003c66"
         d="m 284.976,76.296 h -12.277 c -2.606,0 -4.727,-2.119 -4.727,-4.727 0,-2.606 2.12,-4.726 4.727,-4.726 h 12.277 V 54.566 c 0,-2.606 2.12,-4.727 4.727,-4.727 2.607,0 4.727,2.121 4.727,4.727 v 12.277 h 0.058 l 19.221,-19.225 c -6.184,-6.101 -14.678,-9.867 -24.051,-9.867 -18.915,0 -34.249,15.334 -34.249,34.249 0,9.375 3.767,17.872 9.871,24.056 l 19.697,-19.701 v -0.059 z"
         clip-path="url(#SVGID_2_)"
         id="path67"
         inkscape:connector-curvature="0" />
      <path
         transform="translate(-29.94,-37.751)"
         style="fill:#f7931e"
         d="m 313.708,47.618 -19.223,19.225 h 12.221 c 2.605,0 4.727,2.121 4.727,4.727 0,2.605 -2.121,4.726 -4.727,4.726 h -12.277 v 12.278 c 0,2.605 -2.12,4.727 -4.727,4.727 -2.607,0 -4.727,-2.121 -4.727,-4.727 V 76.355 l -19.698,19.7 c 6.21,6.292 14.84,10.193 24.378,10.193 18.915,0 34.248,-15.334 34.248,-34.249 0,-9.541 -3.9,-18.171 -10.195,-24.381"
         clip-path="url(#SVGID_2_)"
         id="path69"
         inkscape:connector-curvature="0" />
      <path
         transform="translate(-29.94,-37.751)"
         style="fill:#003c66"
         d="M 262.364,44.133 H 45.414 c -8.51,0 -15.474,6.963 -15.474,15.474 v 24.417 c 0,8.512 6.964,15.475 15.474,15.475 h 216.13 c -6.813,-7.068 -11.013,-16.676 -11.013,-27.269 0,-11.013 4.536,-20.962 11.833,-28.097 m -45.378,11.906 h 21.643 v 1.872 h -21.643 z m -143.365,0 h 21.643 v 1.872 H 73.621 Z m -4.916,27.332 c -0.725,1.144 -1.672,2.047 -2.84,2.713 -1.17,0.665 -2.49,1.132 -3.963,1.4 -1.473,0.268 -2.946,0.401 -4.419,0.401 -1.823,0 -3.629,-0.216 -5.418,-0.647 -1.788,-0.432 -3.501,-1.035 -5.137,-1.807 -0.047,0 -0.164,-0.047 -0.351,-0.14 -0.188,-0.117 -0.28,-0.199 -0.28,-0.245 0,-0.023 0.046,-0.117 0.14,-0.281 0.093,-0.163 0.21,-0.367 0.35,-0.613 0.141,-0.246 0.304,-0.525 0.492,-0.842 0.186,-0.315 0.373,-0.637 0.561,-0.964 0.397,-0.654 0.771,-1.274 1.122,-1.859 0.35,-0.584 0.596,-1.004 0.736,-1.262 0.304,0.116 0.596,0.258 0.877,0.421 1.262,0.631 2.53,1.115 3.805,1.455 1.274,0.339 2.624,0.509 4.05,0.509 0.397,0 0.824,-0.019 1.28,-0.053 0.456,-0.035 0.871,-0.123 1.245,-0.264 0.373,-0.141 0.684,-0.355 0.929,-0.648 0.246,-0.292 0.368,-0.707 0.368,-1.245 0,-0.257 -0.07,-0.485 -0.21,-0.685 -0.14,-0.197 -0.316,-0.373 -0.526,-0.524 -0.21,-0.152 -0.433,-0.287 -0.666,-0.404 -0.234,-0.116 -0.456,-0.21 -0.667,-0.28 -0.49,-0.187 -0.994,-0.327 -1.507,-0.421 -0.515,-0.093 -1.03,-0.199 -1.543,-0.315 -0.679,-0.163 -1.345,-0.315 -1.999,-0.456 -0.655,-0.141 -1.286,-0.304 -1.894,-0.491 -0.631,-0.188 -1.233,-0.391 -1.806,-0.613 -0.573,-0.222 -1.105,-0.484 -1.596,-0.789 -1.005,-0.607 -1.805,-1.421 -2.402,-2.437 -0.596,-1.018 -0.894,-2.368 -0.894,-4.051 0,-0.584 0.064,-1.175 0.193,-1.771 0.128,-0.596 0.321,-1.163 0.578,-1.7 0.514,-1.076 1.181,-1.964 1.999,-2.666 0.819,-0.701 1.724,-1.25 2.718,-1.648 0.994,-0.397 2.04,-0.678 3.139,-0.842 1.098,-0.163 2.197,-0.245 3.296,-0.245 1.8,0 3.577,0.217 5.33,0.653 1.754,0.435 3.425,1.145 5.015,2.133 -0.585,0.987 -1.151,1.956 -1.701,2.907 -0.549,0.951 -1.104,1.917 -1.665,2.899 -1.356,-0.655 -2.672,-1.193 -3.946,-1.614 -1.274,-0.42 -2.647,-0.631 -4.12,-0.631 -0.351,0 -0.719,0.018 -1.105,0.053 -0.385,0.035 -0.742,0.123 -1.069,0.263 -0.328,0.14 -0.596,0.344 -0.807,0.613 -0.21,0.268 -0.315,0.624 -0.315,1.067 0,0.327 0.07,0.607 0.21,0.84 0.163,0.257 0.461,0.485 0.894,0.683 0.432,0.198 0.965,0.379 1.596,0.542 0.631,0.164 1.32,0.322 2.069,0.474 0.748,0.151 1.531,0.332 2.35,0.543 0.794,0.21 1.595,0.449 2.401,0.717 0.807,0.269 1.567,0.595 2.28,0.98 0.713,0.386 1.35,0.841 1.911,1.366 0.561,0.525 1.005,1.149 1.333,1.873 0.257,0.537 0.432,1.115 0.526,1.733 0.093,0.619 0.14,1.23 0.14,1.838 0,1.774 -0.363,3.234 -1.087,4.377 M 95.268,66.32 H 80.644 v 3.893 H 94.426 V 76.7 H 80.644 v 3.892 h 14.624 v 6.453 H 73.561 V 59.832 h 21.707 z m 23.688,20.112 c -1.976,0.97 -4.086,1.454 -6.33,1.454 -2.011,0 -3.887,-0.379 -5.628,-1.138 -1.742,-0.76 -3.261,-1.801 -4.559,-3.121 -1.298,-1.321 -2.321,-2.853 -3.069,-4.595 -0.748,-1.741 -1.122,-3.594 -1.122,-5.558 0,-1.964 0.374,-3.817 1.122,-5.559 0.748,-1.742 1.771,-3.273 3.069,-4.595 1.298,-1.32 2.817,-2.36 4.559,-3.121 1.741,-0.759 3.617,-1.139 5.628,-1.139 1.824,0 3.577,0.333 5.261,0.999 1.683,0.667 3.237,1.631 4.664,2.893 l -5.612,4.91 c -1.356,-0.959 -2.782,-1.438 -4.278,-1.438 -0.981,0 -1.894,0.187 -2.735,0.561 -0.842,0.375 -1.567,0.889 -2.174,1.543 -0.609,0.655 -1.087,1.409 -1.438,2.262 -0.351,0.854 -0.526,1.748 -0.526,2.684 0,0.959 0.175,1.864 0.526,2.718 0.351,0.853 0.829,1.601 1.438,2.244 0.607,0.643 1.326,1.156 2.157,1.543 0.829,0.385 1.735,0.578 2.717,0.578 1.122,0 2.168,-0.258 3.139,-0.771 0.97,-0.514 1.817,-1.239 2.542,-2.174 l 5.787,4.699 c -1.451,1.777 -3.164,3.151 -5.138,4.121 m 28.807,-9.346 c 0,1.239 -0.205,2.408 -0.613,3.506 -0.41,1.101 -0.982,2.094 -1.719,2.982 -0.736,0.889 -1.607,1.654 -2.612,2.297 -1.006,0.643 -2.093,1.138 -3.262,1.49 -0.514,0.163 -1.04,0.291 -1.578,0.385 -0.538,0.094 -1.075,0.14 -1.613,0.14 -0.538,0 -1.069,-0.046 -1.596,-0.14 -0.526,-0.094 -1.046,-0.222 -1.56,-0.385 -1.169,-0.353 -2.257,-0.848 -3.261,-1.49 -1.006,-0.643 -1.876,-1.408 -2.613,-2.297 -0.736,-0.889 -1.309,-1.882 -1.718,-2.982 -0.41,-1.098 -0.614,-2.267 -0.614,-3.506 V 59.832 h 7.575 V 76.63 c 0,0.515 0.105,0.988 0.315,1.42 0.211,0.434 0.492,0.808 0.842,1.123 0.351,0.315 0.754,0.562 1.21,0.736 0.456,0.174 0.929,0.263 1.42,0.263 0.514,0 1,-0.088 1.456,-0.263 0.455,-0.175 0.858,-0.421 1.209,-0.736 0.351,-0.315 0.631,-0.689 0.842,-1.123 0.21,-0.432 0.315,-0.905 0.315,-1.42 V 59.832 h 7.575 z m 20.584,9.959 -4.733,-8.416 h -4.594 l 0.035,8.416 H 151.55 V 59.832 h 13.642 c 0.654,0 1.32,0.123 1.998,0.368 0.678,0.246 1.333,0.574 1.964,0.982 0.631,0.41 1.215,0.872 1.754,1.386 0.537,0.514 0.993,1.04 1.367,1.578 0.467,0.678 0.824,1.467 1.07,2.367 0.245,0.9 0.368,1.759 0.368,2.578 0,1.355 -0.316,2.618 -0.947,3.787 -0.631,1.168 -1.508,2.151 -2.63,2.945 l 6.382,11.222 z m 17.605,0 h -7.33 V 59.833 h 7.33 z m 27.213,-20.971 -0.004,0.492 h -7.956 v 20.479 h -7.399 V 66.566 h -7.958 l -0.003,-0.492 v -6.242 h 23.32 z m 25.494,0.246 h -14.624 v 3.893 h 13.782 V 76.7 h -13.782 v 3.892 h 14.624 v 6.453 H 216.952 V 59.832 h 21.707 z"
         clip-path="url(#SVGID_2_)"
         id="path71"
         inkscape:connector-curvature="0" />
      <path
         transform="translate(-29.94,-37.751)"
         style="fill:#003c66"
         d="m 165.227,66.754 c -0.28,-0.268 -0.608,-0.477 -0.981,-0.627 -0.375,-0.152 -0.772,-0.227 -1.193,-0.227 h -4.243 v 5.856 h 4.243 c 0.421,0 0.818,-0.075 1.193,-0.227 0.373,-0.15 0.701,-0.359 0.981,-0.627 0.281,-0.267 0.503,-0.575 0.667,-0.923 0.163,-0.349 0.245,-0.733 0.245,-1.151 0,-0.418 -0.082,-0.802 -0.245,-1.15 -0.165,-0.349 -0.386,-0.657 -0.667,-0.924"
         clip-path="url(#SVGID_2_)"
         id="path73"
         inkscape:connector-curvature="0" />
    </g>
    <rect
       id="top-left"
       width="58.869793"
       height="9.2604179"
       x="20.507017"
       y="114.62376"
       style="fill:#000000;fill-opacity:0.00392157;stroke-width:0.27608737" />
    <rect
       id="bottom-left"
       width="58.869793"
       height="9.2604179"
       x="20.507021"
       y="123.88416"
       style="fill:#000000;fill-opacity:0.00392157;stroke-width:0.27608737" />
    <rect
       id="bottom-right"
       width="58.869793"
       height="9.2604179"
       x="79.376816"
       y="123.88413"
       style="fill:#000000;fill-opacity:0.00392157;stroke-width:0.27608737" />
    <rect
       id="top-right"
       width="58.869793"
       height="9.2604179"
       x="79.376816"
       y="114.62376"
       style="fill:#000000;fill-opacity:0.00392157;stroke-width:0.27608737" />
  </g>
</svg>
